<svg width="34" height="30" viewBox="0 0 34 30" fill="none" xmlns="http://www.w3.org/2000/svg">
<path fill-rule="evenodd" clip-rule="evenodd" d="M26.0666 5.39401C26.1333 5.51054 26.2499 5.59378 26.3999 5.59378C30.3999 5.59378 33.6666 8.85683 33.6666 12.8524V22.7414C33.6666 26.737 30.3999 30 26.3999 30H7.59992C3.58325 30 0.333252 26.737 0.333252 22.7414V12.8524C0.333252 8.85683 3.58325 5.59378 7.59992 5.59378C7.73325 5.59378 7.86659 5.52719 7.91659 5.39401L8.01659 5.19423C8.07403 5.07332 8.13299 4.94913 8.19284 4.82306C8.61922 3.92496 9.09095 2.93135 9.38325 2.34739C10.1499 0.849057 11.4499 0.0166482 13.0666 0H20.9166C22.5333 0.0166482 23.8499 0.849057 24.6166 2.34739C24.8791 2.87185 25.2791 3.71667 25.6646 4.5309C25.7441 4.69884 25.823 4.86548 25.8999 5.02775L26.0666 5.39401ZM24.8499 11.7868C24.8499 12.6192 25.5166 13.2851 26.3499 13.2851C27.1833 13.2851 27.8666 12.6192 27.8666 11.7868C27.8666 10.9544 27.1833 10.2718 26.3499 10.2718C25.5166 10.2718 24.8499 10.9544 24.8499 11.7868ZM14.1169 14.3676C14.9002 13.5851 15.9169 13.1689 17.0002 13.1689C18.0835 13.1689 19.1002 13.5851 19.8669 14.351C20.6335 15.1168 21.0502 16.1323 21.0502 17.2145C21.0335 19.4453 19.2335 21.26 17.0002 21.26C15.9169 21.26 14.9002 20.8438 14.1335 20.0779C13.3669 19.3121 12.9502 18.2966 12.9502 17.2145V17.1978C12.9335 16.149 13.3502 15.1334 14.1169 14.3676ZM21.6167 21.8431C20.4333 23.0251 18.8 23.7577 17 23.7577C15.25 23.7577 13.6167 23.0751 12.3667 21.8431C11.1333 20.5945 10.45 18.963 10.45 17.2149C10.4333 15.4835 11.1167 13.852 12.35 12.6034C13.6 11.3548 15.25 10.6722 17 10.6722C18.75 10.6722 20.4 11.3548 21.6333 12.5867C22.8667 13.8354 23.55 15.4835 23.55 17.2149C23.5333 19.0296 22.8 20.6611 21.6167 21.8431Z" fill="#CFD3D6"/>
</svg>
