<svg width="16" height="16" viewBox="0 0 16 16" fill="none" xmlns="http://www.w3.org/2000/svg">
<path d="M8.00065 1.33301C4.32732 1.33301 1.33398 4.32634 1.33398 7.99967C1.33398 11.673 4.32732 14.6663 8.00065 14.6663C11.674 14.6663 14.6673 11.673 14.6673 7.99967C14.6673 4.32634 11.674 1.33301 8.00065 1.33301ZM11.1873 6.46634L7.40732 10.2463C7.31398 10.3397 7.18732 10.393 7.05398 10.393C6.92065 10.393 6.79398 10.3397 6.70065 10.2463L4.81398 8.35967C4.62065 8.16634 4.62065 7.84634 4.81398 7.65301C5.00732 7.45967 5.32732 7.45967 5.52065 7.65301L7.05398 9.18634L10.4807 5.75967C10.674 5.56634 10.994 5.56634 11.1873 5.75967C11.3807 5.95301 11.3807 6.26634 11.1873 6.46634Z" fill="#35D48D"/>
</svg>
