<svg width="200" height="200" viewBox="0 0 200 200" fill="none" xmlns="http://www.w3.org/2000/svg">
<g clip-path="url(#clip0_1295_14781)">
<mask id="mask0_1295_14781" style="mask-type:luminance" maskUnits="userSpaceOnUse" x="0" y="0" width="200" height="200">
<path d="M200 0H0V200H200V0Z" fill="white"/>
</mask>
<g mask="url(#mask0_1295_14781)">
<g opacity="0.01">
<path d="M99.8409 34.0283C136.301 34.0283 165.859 63.5856 165.859 100.046C165.859 136.507 136.301 166.064 99.8409 166.064C63.3806 166.064 33.8232 136.507 33.8232 100.046C33.8232 63.5856 63.3806 34.0283 99.8409 34.0283Z" fill="#F7FFF4"/>
</g>
<g opacity="0.35364">
<path d="M99.8425 17.0352C145.688 17.0352 182.853 54.1999 182.853 100.045C182.853 145.891 145.688 183.056 99.8425 183.056C53.9971 183.056 16.8323 145.891 16.8323 100.045C16.8323 54.1999 53.9971 17.0352 99.8425 17.0352Z" stroke="#F1FBED" stroke-width="0.762769" stroke-miterlimit="10"/>
</g>
<path d="M100 57.3682C123.529 57.3682 142.632 76.4716 142.632 100C142.632 123.529 123.529 142.632 100 142.632C76.4713 142.632 57.3679 123.529 57.3679 100C57.3679 76.4716 76.4713 57.3682 100 57.3682Z" fill="#090F08"/>
<path d="M100 57.3682C123.529 57.3682 142.632 76.4716 142.632 100C142.632 123.529 123.529 142.632 100 142.632C76.4713 142.632 57.3679 123.529 57.3679 100C57.3679 76.4716 76.4713 57.3682 100 57.3682Z" stroke="#090F08" stroke-width="4.77777" stroke-linecap="round" stroke-linejoin="round"/>
<path d="M119.894 86.3682L92.1092 114.153L77.7758 99.8197" stroke="white" stroke-width="8.84615" stroke-linecap="round" stroke-linejoin="round"/>
</g>
</g>
<defs>
<clipPath id="clip0_1295_14781">
<rect width="200" height="200" fill="white"/>
</clipPath>
</defs>
</svg>
