<svg width="25" height="24" viewBox="0 0 25 24" fill="none" xmlns="http://www.w3.org/2000/svg">
<path d="M17.5 3.75H10.78C9.36999 3.75 8.02999 4.34 7.07999 5.39L3.54999 9.27C2.13999 10.82 2.13999 13.18 3.54999 14.73L7.07999 18.61C8.02999 19.65 9.36999 20.25 10.78 20.25H17.5C20.26 20.25 22.5 18.01 22.5 15.25V8.75C22.5 5.99 20.26 3.75 17.5 3.75ZM17.03 13.94C17.32 14.23 17.32 14.71 17.03 15C16.88 15.15 16.69 15.22 16.5 15.22C16.31 15.22 16.12 15.15 15.97 15L14.03 13.06L12.09 15C11.94 15.15 11.75 15.22 11.56 15.22C11.37 15.22 11.18 15.15 11.03 15C10.74 14.71 10.74 14.23 11.03 13.94L12.97 12L11.03 10.06C10.74 9.77 10.74 9.29 11.03 9C11.32 8.71 11.8 8.71 12.09 9L14.03 10.94L15.97 9C16.26 8.71 16.74 8.71 17.03 9C17.32 9.29 17.32 9.77 17.03 10.06L15.09 12L17.03 13.94Z" fill="#4E5256"/>
</svg>
