<svg width="16" height="16" viewBox="0 0 16 16" fill="none" xmlns="http://www.w3.org/2000/svg">
<path d="M7.99231 1.39844C7.79931 1.39844 7.60628 1.44169 7.45678 1.52819L2.68325 4.28944C2.38419 4.46244 2.38419 4.736 2.68325 4.909L7.45678 7.67025C7.75584 7.84325 8.22875 7.84325 8.52778 7.67025L13.3013 4.909C13.6004 4.73603 13.6004 4.46244 13.3013 4.28947L8.52778 1.52822C8.37825 1.44166 8.18528 1.39844 7.99231 1.39844ZM7.96656 3.05813C8.24823 3.06117 8.50146 3.12567 8.72625 3.25163C8.88 3.33779 8.98069 3.4361 9.02831 3.54656C9.07435 3.65617 9.07706 3.80059 9.03644 3.97984L8.98644 4.15816C8.95331 4.28576 8.94644 4.37753 8.96581 4.43347C8.9836 4.48857 9.02779 4.53591 9.09837 4.57547L9.20431 4.63478L8.16572 5.21666L8.05031 5.15206C7.92165 5.08 7.83953 4.99854 7.80397 4.90769C7.76684 4.81598 7.77303 4.67009 7.82253 4.47003L7.87016 4.29041C7.89786 4.18343 7.90057 4.09574 7.87828 4.02734C7.85786 3.95784 7.81157 3.90287 7.73941 3.86244C7.62955 3.8009 7.49799 3.77878 7.34472 3.79609C7.18986 3.81255 7.02997 3.86698 6.86503 3.95937C6.70968 4.04642 6.56853 4.15537 6.44159 4.28625C6.31311 4.41631 6.20283 4.56515 6.11075 4.73275L5.37169 4.31863C5.53787 4.15175 5.70117 4.00578 5.86156 3.88072C6.02198 3.75572 6.19137 3.64322 6.36975 3.54322C6.83775 3.28101 7.27296 3.1251 7.67537 3.0755C7.77195 3.06313 7.86926 3.05731 7.96663 3.05809L7.96656 3.05813ZM9.55272 4.83L10.3907 5.2995L9.35209 5.88138L8.51409 5.41191L9.55272 4.83ZM2.3645 5.43206C2.18472 5.42722 2.0625 5.56756 2.0625 5.81581V10.7438C2.0625 11.0892 2.29906 11.4989 2.59813 11.6716L7.18969 14.3231C7.48875 14.4958 7.72531 14.3593 7.72531 14.0139V9.08581C7.72531 8.74044 7.48875 8.33081 7.18969 8.15806L2.59813 5.50659C2.51406 5.458 2.43484 5.43388 2.3645 5.432V5.43206ZM13.6387 5.43213C13.5683 5.434 13.4892 5.45806 13.4051 5.50666L8.81337 8.15812C8.51431 8.33084 8.27775 8.74056 8.27775 9.08594V14.0141C8.27775 14.3594 8.51431 14.4959 8.81337 14.3231L13.4051 11.6718C13.7042 11.499 13.9407 11.0894 13.9407 10.744V5.81588C13.9407 5.56769 13.8185 5.42737 13.6387 5.43219V5.43213ZM3.59038 7.42437C3.79517 7.46708 3.98219 7.5193 4.15144 7.58103C4.3211 7.64297 4.48506 7.71956 4.64144 7.80994C5.05435 8.04838 5.36913 8.32006 5.58575 8.625C5.80238 8.92812 5.91069 9.25146 5.91069 9.595C5.91069 9.77125 5.87769 9.91046 5.81169 10.0126C5.74567 10.113 5.63312 10.1973 5.47406 10.2656L5.31156 10.3256C5.19648 10.3706 5.12117 10.4171 5.08563 10.4649C5.0501 10.5109 5.03234 10.5744 5.03234 10.6553V10.7767L4.11594 10.2476V10.1154C4.11592 9.96787 4.14383 9.8536 4.19969 9.77256C4.25554 9.68971 4.37317 9.61193 4.55256 9.53922L4.71506 9.47653C4.81152 9.43872 4.88175 9.39115 4.92575 9.33381C4.9714 9.27748 4.99423 9.20794 4.99425 9.12519C4.99425 8.99933 4.95362 8.87787 4.87238 8.76081C4.79115 8.64196 4.67776 8.5405 4.53222 8.45644C4.39514 8.37731 4.24704 8.3224 4.08794 8.29169C3.92885 8.25919 3.763 8.25247 3.59038 8.27153V7.42437ZM12.0135 7.69334C12.061 7.69334 12.1051 7.69848 12.1458 7.70875C12.3624 7.76173 12.4707 7.96 12.4707 8.30356C12.4707 8.47981 12.4377 8.65714 12.3717 8.83553C12.3057 9.01211 12.1931 9.22636 12.0341 9.47828L11.8716 9.72591C11.7565 9.90386 11.6812 10.0373 11.6456 10.1261C11.6101 10.2132 11.5923 10.2972 11.5923 10.3781V10.4995L10.6759 11.0286V10.8964C10.6759 10.7489 10.7039 10.6024 10.7597 10.4568C10.8156 10.3095 10.9332 10.0959 11.1126 9.81609L11.2751 9.56578C11.3715 9.41653 11.4418 9.28784 11.4858 9.17972C11.5314 9.07059 11.5542 8.97466 11.5543 8.89191C11.5543 8.76603 11.5136 8.69147 11.4324 8.66822C11.3512 8.6432 11.2378 8.67268 11.0922 8.75666C10.9551 8.83584 10.8071 8.95194 10.648 9.10494C10.4889 9.25617 10.3231 9.44096 10.1504 9.65931V8.81213C10.3552 8.61838 10.5422 8.45465 10.7114 8.32094C10.8807 8.18725 11.044 8.07499 11.2014 7.98416C11.5369 7.79041 11.8076 7.69346 12.0136 7.69331L12.0135 7.69334ZM4.11591 10.6469L5.03234 11.176V12.1365L4.11594 11.6074V10.647L4.11591 10.6469ZM11.5923 10.8988V11.8593L10.6759 12.3883V11.4279L11.5923 10.8988Z" fill="#888D91"/>
</svg>
