<svg width="20" height="20" viewBox="0 0 20 20" fill="none" xmlns="http://www.w3.org/2000/svg">
<path d="M17.5 18.3335H2.5C2.15833 18.3335 1.875 18.0502 1.875 17.7085C1.875 17.3668 2.15833 17.0835 2.5 17.0835H17.5C17.8417 17.0835 18.125 17.3668 18.125 17.7085C18.125 18.0502 17.8417 18.3335 17.5 18.3335Z" fill="#4E5256"/>
<path d="M15.8505 2.90005C14.2338 1.28338 12.6505 1.24172 10.9921 2.90005L9.9838 3.90838C9.90047 3.99172 9.86714 4.12505 9.90047 4.24172C10.5338 6.45005 12.3005 8.21672 14.5088 8.85005C14.5421 8.85838 14.5755 8.86672 14.6088 8.86672C14.7005 8.86672 14.7838 8.83338 14.8505 8.76672L15.8505 7.75838C16.6755 6.94172 17.0755 6.15005 17.0755 5.35005C17.0838 4.52505 16.6838 3.72505 15.8505 2.90005Z" fill="#4E5256"/>
<path d="M13.0079 9.60817C12.7663 9.4915 12.5329 9.37484 12.3079 9.2415C12.1246 9.13317 11.9496 9.0165 11.7746 8.8915C11.6329 8.79984 11.4663 8.6665 11.3079 8.53317C11.2913 8.52484 11.2329 8.47484 11.1663 8.40817C10.8913 8.17484 10.5829 7.87484 10.3079 7.5415C10.2829 7.52484 10.2413 7.4665 10.1829 7.3915C10.0996 7.2915 9.95795 7.12484 9.83295 6.93317C9.73295 6.80817 9.61628 6.62484 9.50795 6.4415C9.37461 6.2165 9.25795 5.9915 9.14128 5.75817C8.98832 5.43039 8.5581 5.33301 8.30233 5.58879L3.61628 10.2748C3.50795 10.3832 3.40795 10.5915 3.38295 10.7332L2.93295 13.9248C2.84961 14.4915 3.00795 15.0248 3.35795 15.3832C3.65795 15.6748 4.07461 15.8332 4.52461 15.8332C4.62461 15.8332 4.72461 15.8248 4.82461 15.8082L8.02461 15.3582C8.17461 15.3332 8.38295 15.2332 8.48295 15.1248L13.1767 10.4311C13.4274 10.1804 13.3332 9.74912 13.0079 9.60817Z" fill="#4E5256"/>
</svg>
