<svg width="200" height="151" viewBox="0 0 200 151" fill="none" xmlns="http://www.w3.org/2000/svg">
<path d="M82.499 53L139.184 66.3685L128 114.237L91.763 104.395L82.499 53Z" fill="#CFD3D6"/>
<path d="M82.5 53L43 83.8159L62.2368 106.184H92.6579L82.5 53Z" fill="#E2E4E6"/>
<path d="M43 83.8159L99.3684 96.7896L106.079 146L55.0123 129.264C53.6674 128.823 52.6555 127.705 52.3514 126.322L43 83.8159Z" fill="#F9FAFB"/>
<path d="M139.183 66.3687L99.3672 96.7897L106.078 146L138.816 114.554C139.62 113.782 140.066 112.708 140.044 111.593L139.183 66.3687Z" fill="#F2F5F5"/>
<path d="M84.6115 76.1307C84.8973 75.0634 85.9942 74.4301 87.0614 74.7162L92.9536 76.296C94.0202 76.582 94.6532 77.6784 94.3675 78.7451L92.7732 84.699C92.4874 85.7662 91.3905 86.3996 90.3233 86.1135L84.4311 84.5336C83.3645 84.2477 82.7315 83.1513 83.0172 82.0845L84.6115 76.1307ZM99.6759 55.7976C100.229 53.7336 99.1307 51.5859 96.5066 51.1214C94.6032 50.7846 93.2308 51.2821 92.0973 52.5129C91.3252 53.3514 90.0881 53.718 89.1203 53.1159L84.5733 50.2873C83.6684 49.7244 83.3549 48.5428 83.9499 47.6586C87.5092 42.369 92.5488 40.1583 98.1839 41.2877C106.472 42.9121 110.206 48.1581 110.236 53.8461C110.281 60.3748 107.22 64.2177 101.752 67.2355C99.3145 68.5671 97.6235 69.7459 96.4445 71.8837C95.942 72.7948 94.9222 73.3562 93.9172 73.0867L87.111 71.2618C86.3716 71.0636 85.9328 70.3036 86.1309 69.5641C86.8927 66.7192 88.7803 64.3555 91.4514 62.8596C97.3441 59.5967 98.9888 58.3636 99.6759 55.7976Z" fill="#AAAFB3"/>
<path d="M118.549 15.9519L128.413 32.4871L127.586 33.9191L105.868 21.3803L112.332 15.1265C114.186 13.3331 117.227 13.7369 118.549 15.9519Z" fill="#E2E4E6"/>
<path d="M147.902 32.8996L128.65 32.6244L127.823 34.0563L149.541 46.5951L151.725 37.8706C152.352 35.3686 150.481 32.9365 147.902 32.8996Z" fill="#E2E4E6"/>
<path d="M94.9922 21.4746C97.2013 17.6483 102.094 16.3372 105.92 18.5464L152.206 45.2692C156.032 47.4784 157.343 52.3711 155.134 56.1974L151.142 63.1114L91.0004 28.3885L94.9922 21.4746Z" fill="#F2F5F5"/>
<rect x="123.335" y="28.6011" width="13.2278" height="15.9835" transform="rotate(30 123.335 28.6011)" fill="#E2E4E6"/>
<rect x="75.5" y="28.3438" width="3.34076" height="6.01336" transform="rotate(-23.7124 75.5 28.3438)" fill="#EBEEEF"/>
<rect x="64.791" y="71.1401" width="2.9544" height="5.75167" transform="rotate(24.4419 64.791 71.1401)" fill="white"/>
<rect x="62.5" y="49.8672" width="3.34076" height="7.76638" transform="rotate(-59.1276 62.5 49.8672)" fill="#EBEEEF"/>
<rect x="50.3379" y="49" width="2.13928" height="3.96968" transform="rotate(19.7023 50.3379 49)" fill="#EBEEEF"/>
<rect x="132.984" y="84" width="3.34076" height="6.01336" transform="rotate(41.492 132.984 84)" fill="#E2E4E6"/>
<rect x="123" y="61.1338" width="2.7621" height="6.01336" transform="rotate(-19.8371 123 61.1338)" fill="#EBEEEF"/>
<rect x="111.451" y="77" width="3.34076" height="6.01336" transform="rotate(24.0534 111.451 77)" fill="#EBEEEF"/>
<rect x="71.3438" y="84.8047" width="3.34076" height="6.01336" transform="rotate(-37.4578 71.3438 84.8047)" fill="#EBEEEF"/>
</svg>
