<svg width="24" height="24" viewBox="0 0 24 24" fill="none" xmlns="http://www.w3.org/2000/svg">
<path d="M20.04 6.81969L14.28 2.78969C12.71 1.68969 10.3 1.74969 8.78999 2.91969L3.77999 6.82969C2.77999 7.60969 1.98999 9.20969 1.98999 10.4697V17.3697C1.98999 19.9197 4.05999 21.9997 6.60999 21.9997H17.39C19.94 21.9997 22.01 19.9297 22.01 17.3797V10.5997C22.01 9.24969 21.14 7.58969 20.04 6.81969ZM12.75 17.9997C12.75 18.4097 12.41 18.7497 12 18.7497C11.59 18.7497 11.25 18.4097 11.25 17.9997V14.9997C11.25 14.5897 11.59 14.2497 12 14.2497C12.41 14.2497 12.75 14.5897 12.75 14.9997V17.9997Z" fill="#888D91"/>
</svg>
