<svg width="16" height="16" viewBox="0 0 16 16" fill="none" xmlns="http://www.w3.org/2000/svg">
<path d="M4.14949 6.49213L2.28828 8.35334C1.59317 9.04845 1.19343 9.99425 1.20074 10.9883C1.20804 11.9823 1.59903 12.9338 2.32712 13.6395C3.0327 14.3676 3.98447 14.7585 4.97832 14.7658C5.99484 14.7733 6.91826 14.3961 7.61341 13.701L9.47462 11.8398M11.852 9.50789L13.7132 7.64668C14.4083 6.95157 14.808 6.00577 14.8007 5.01175C14.7934 4.01774 14.4024 3.06617 13.6743 2.36056C12.9689 1.65516 12.0173 1.26415 11.0233 1.25684C10.0293 1.24954 9.08337 1.62658 8.38822 2.32171L6.527 4.18292M5.17832 10.7726L10.762 5.18901" stroke="#4E5256" stroke-width="1.66667" stroke-linecap="round" stroke-linejoin="round"/>
</svg>
