<svg width="39" height="39" viewBox="0 0 39 39" fill="none" xmlns="http://www.w3.org/2000/svg">
<path fill-rule="evenodd" clip-rule="evenodd" d="M36.8731 15.6586C37.6659 13.5913 38.1004 11.3464 38.1004 9V2.28882e-06L14.7004 0C7.07886 0 0.900393 6.17847 0.900393 13.8C0.900391 20.1735 5.22108 25.5378 11.0932 27.1238C11.1254 27.3287 11.1045 27.5453 11.0216 27.7528C10.7775 28.3643 10.0882 28.6655 9.48195 28.4255C6.5487 27.2645 4.00438 25.2912 2.12769 22.7418C1.33484 24.8091 0.900391 27.054 0.900391 29.4003V38.4003H24.3004C31.9219 38.4003 38.1004 32.2218 38.1004 24.6003C38.1004 18.2268 33.7797 12.8624 27.9076 11.2765C27.8754 11.0716 27.8963 10.8551 27.9792 10.6477C28.2233 10.0362 28.9126 9.73499 29.5188 9.97495C32.4521 11.136 34.9964 13.1092 36.8731 15.6586ZM30.9006 19.2001H30.9008V19.2002H30.9006C24.957 19.2002 20.1348 24.0013 20.1008 29.9369C20.0667 24.0013 15.2445 19.2001 9.30095 19.2001H9.30098C15.2438 19.2001 20.0656 14.4001 20.1008 8.46556C20.136 14.4001 24.9577 19.2001 30.9006 19.2001Z" fill="white"/>
</svg>
