<svg width="50" height="50" viewBox="0 0 50 50" fill="none" xmlns="http://www.w3.org/2000/svg">
<path d="M38.4757 5.60011L38.3007 15.0751C38.2757 16.3751 39.1007 18.1001 40.1507 18.8751L46.3507 23.5751C50.3257 26.5751 49.6757 30.2501 44.9257 31.7501L36.8507 34.2751C35.5007 34.7001 34.0757 36.1751 33.7257 37.5501L31.8007 44.9001C30.2757 50.7001 26.4757 51.2751 23.3257 46.1751L18.9257 39.0501C18.1257 37.7501 16.2257 36.7751 14.7257 36.8501L6.37568 37.2751C0.400676 37.5751 -1.29932 34.1251 2.60068 29.5751L7.55068 23.8251C8.47568 22.7501 8.90068 20.7501 8.47568 19.4001L5.92568 11.3001C4.45068 6.55011 7.10068 3.92511 11.8257 5.47511L19.2007 7.90011C20.4507 8.30011 22.3257 8.02511 23.3757 7.25011L31.0757 1.70011C35.2507 -1.27489 38.5757 0.475109 38.4757 5.60011Z" fill="white"/>
<path d="M48.8508 46.4254L41.2758 38.8504C40.5508 38.1254 39.3508 38.1254 38.6258 38.8504C37.9008 39.5754 37.9008 40.7754 38.6258 41.5004L46.2008 49.0754C46.5758 49.4504 47.0508 49.6254 47.5258 49.6254C48.0008 49.6254 48.4758 49.4504 48.8508 49.0754C49.5758 48.3504 49.5758 47.1504 48.8508 46.4254Z" fill="white"/>
</svg>
