<svg width="50" height="50" viewBox="0 0 50 50" fill="none" xmlns="http://www.w3.org/2000/svg">
<path fill-rule="evenodd" clip-rule="evenodd" d="M14.1655 50H35.832C44.3078 50 50 44.0547 50 35.2082V14.7918C50 5.94528 44.3078 0 35.8345 0H14.1655C5.69224 0 0 5.94528 0 14.7918V35.2082C0 44.0547 5.69224 50 14.1655 50ZM16.2471 22.5C12.8005 22.5 10 19.6957 10 16.25C10 12.8043 12.8005 10 16.2471 10C19.6912 10 22.4943 12.8043 22.4943 16.25C22.4943 19.6957 19.6912 22.5 16.2471 22.5ZM44.552 32.3349C45.3892 34.4814 44.9543 37.0614 44.0593 39.1873C42.9984 41.7157 40.9672 43.63 38.408 44.4659C37.2717 44.8375 36.0801 45 34.891 45H13.8216C11.725 45 9.86969 44.4969 8.34876 43.5604C7.39598 42.9721 7.22754 41.6151 7.93396 40.7353C9.11551 39.2647 10.282 37.789 11.4585 36.3003C13.7009 33.452 15.2118 32.6264 16.8911 33.3514C17.5724 33.6507 18.2562 34.0996 18.9601 34.5743C20.8355 35.8488 23.4425 37.6006 26.8765 35.6992C29.2265 34.383 30.5895 32.1253 31.7764 30.1593L31.7963 30.1264C31.8801 29.989 31.9631 29.8516 32.046 29.7146L32.0469 29.713C32.4458 29.053 32.8393 28.4018 33.2845 27.8019C33.8426 27.0511 35.9116 24.7033 38.5915 26.3751C40.2984 27.4278 41.7339 28.8519 43.2699 30.3767C43.8557 30.9598 44.273 31.6228 44.552 32.3349Z" fill="white"/>
</svg>
