<svg width="16" height="16" viewBox="0 0 16 16" fill="none" xmlns="http://www.w3.org/2000/svg">
<path d="M6.00016 1.3335C4.2535 1.3335 2.8335 2.7535 2.8335 4.50016C2.8335 6.2135 4.1735 7.60016 5.92016 7.66016C5.9735 7.6535 6.02683 7.6535 6.06683 7.66016C6.08016 7.66016 6.08683 7.66016 6.10016 7.66016C6.10683 7.66016 6.10683 7.66016 6.1135 7.66016C7.82016 7.60016 9.16016 6.2135 9.16683 4.50016C9.16683 2.7535 7.74683 1.3335 6.00016 1.3335Z" fill="#888D91"/>
<path d="M9.38664 9.43342C7.52664 8.19342 4.49331 8.19342 2.61997 9.43342C1.77331 10.0001 1.30664 10.7668 1.30664 11.5868C1.30664 12.4068 1.77331 13.1668 2.61331 13.7268C3.54664 14.3534 4.77331 14.6668 5.99997 14.6668C7.22664 14.6668 8.45331 14.3534 9.38664 13.7268C10.2266 13.1601 10.6933 12.4001 10.6933 11.5734C10.6866 10.7534 10.2266 9.99342 9.38664 9.43342Z" fill="#888D91"/>
<path d="M13.3267 4.89356C13.4334 6.1869 12.5134 7.32023 11.2401 7.47356C11.2334 7.47356 11.2334 7.47356 11.2267 7.47356H11.2067C11.1667 7.47356 11.1267 7.47356 11.0934 7.4869C10.4467 7.52023 9.8534 7.31356 9.40674 6.93356C10.0934 6.32023 10.4867 5.40023 10.4067 4.40023C10.3601 3.86023 10.1734 3.3669 9.89341 2.9469C10.1467 2.82023 10.4401 2.74023 10.7401 2.71356C12.0467 2.60023 13.2134 3.57356 13.3267 4.89356Z" fill="#888D91"/>
<path d="M14.66 11.0604C14.6067 11.7071 14.1933 12.2671 13.5 12.6471C12.8333 13.0138 11.9933 13.1871 11.16 13.1671C11.64 12.7338 11.92 12.1938 11.9733 11.6204C12.04 10.7938 11.6467 10.0004 10.86 9.36709C10.4133 9.01376 9.89333 8.73376 9.32666 8.52709C10.8 8.10043 12.6533 8.38709 13.7933 9.30709C14.4067 9.80043 14.72 10.4204 14.66 11.0604Z" fill="#888D91"/>
</svg>
