<svg width="21" height="20" viewBox="0 0 21 20" fill="none" xmlns="http://www.w3.org/2000/svg">
<path d="M1.91699 8.12533C1.57533 8.12533 1.29199 7.84199 1.29199 7.50033V5.41699C1.29199 3.00033 3.25866 1.04199 5.66699 1.04199H7.75033C8.09199 1.04199 8.37533 1.32533 8.37533 1.66699C8.37533 2.00866 8.09199 2.29199 7.75033 2.29199H5.66699C3.94199 2.29199 2.54199 3.69199 2.54199 5.41699V7.50033C2.54199 7.84199 2.25866 8.12533 1.91699 8.12533Z" fill="#4E5256"/>
<path d="M18.5833 8.12533C18.2417 8.12533 17.9583 7.84199 17.9583 7.50033V5.41699C17.9583 3.69199 16.5583 2.29199 14.8333 2.29199H12.75C12.4083 2.29199 12.125 2.00866 12.125 1.66699C12.125 1.32533 12.4083 1.04199 12.75 1.04199H14.8333C17.2417 1.04199 19.2083 3.00033 19.2083 5.41699V7.50033C19.2083 7.84199 18.925 8.12533 18.5833 8.12533Z" fill="#4E5256"/>
<path d="M14.833 18.958H13.583C13.2413 18.958 12.958 18.6747 12.958 18.333C12.958 17.9913 13.2413 17.708 13.583 17.708H14.833C16.558 17.708 17.958 16.308 17.958 14.583V13.333C17.958 12.9913 18.2413 12.708 18.583 12.708C18.9247 12.708 19.208 12.9913 19.208 13.333V14.583C19.208 16.9997 17.2413 18.958 14.833 18.958Z" fill="#4E5256"/>
<path d="M7.75033 18.9583H5.66699C3.25866 18.9583 1.29199 17 1.29199 14.5833V12.5C1.29199 12.1583 1.57533 11.875 1.91699 11.875C2.25866 11.875 2.54199 12.1583 2.54199 12.5V14.5833C2.54199 16.3083 3.94199 17.7083 5.66699 17.7083H7.75033C8.09199 17.7083 8.37533 17.9917 8.37533 18.3333C8.37533 18.675 8.09199 18.9583 7.75033 18.9583Z" fill="#4E5256"/>
<path d="M7.75 4.375H6.08333C5.13333 4.375 4.625 4.875 4.625 5.83333V7.5C4.625 8.45833 5.13333 8.95833 6.08333 8.95833H7.75C8.7 8.95833 9.20833 8.45833 9.20833 7.5V5.83333C9.20833 4.875 8.7 4.375 7.75 4.375Z" fill="#4E5256"/>
<path d="M14.417 4.375H12.7503C11.8003 4.375 11.292 4.875 11.292 5.83333V7.5C11.292 8.45833 11.8003 8.95833 12.7503 8.95833H14.417C15.367 8.95833 15.8753 8.45833 15.8753 7.5V5.83333C15.8753 4.875 15.367 4.375 14.417 4.375Z" fill="#4E5256"/>
<path d="M7.75 11.042H6.08333C5.13333 11.042 4.625 11.542 4.625 12.5003V14.167C4.625 15.1253 5.13333 15.6253 6.08333 15.6253H7.75C8.7 15.6253 9.20833 15.1253 9.20833 14.167V12.5003C9.20833 11.542 8.7 11.042 7.75 11.042Z" fill="#4E5256"/>
<path d="M14.417 11.042H12.7503C11.8003 11.042 11.292 11.542 11.292 12.5003V14.167C11.292 15.1253 11.8003 15.6253 12.7503 15.6253H14.417C15.367 15.6253 15.8753 15.1253 15.8753 14.167V12.5003C15.8753 11.542 15.367 11.042 14.417 11.042Z" fill="#4E5256"/>
</svg>
