<svg width="18" height="19" viewBox="0 0 18 19" fill="none" xmlns="http://www.w3.org/2000/svg">
<path d="M3.54616 5.16265C3.33094 5.10587 3.15206 4.95643 3.0579 4.75474C2.96374 4.55305 2.96402 4.31996 3.05868 4.11851L4.71944 0.584121C4.8432 0.320735 5.10815 0.152717 5.39916 0.153077C5.69018 0.153437 5.95471 0.32211 6.07782 0.585801L6.81045 2.15504C6.83664 2.14474 6.86368 2.13581 6.89151 2.12836C11.2389 0.963489 15.7074 3.5434 16.8723 7.89075C18.0371 12.2381 15.4572 16.7066 11.1099 17.8715C6.76253 19.0364 2.29399 16.4565 1.12912 12.1091C0.758702 10.7267 0.767035 9.32978 1.09147 8.03105C1.19186 7.62919 1.59901 7.38479 2.00088 7.48518C2.40274 7.58557 2.64714 7.99273 2.54675 8.39459C2.28245 9.45258 2.27517 10.5907 2.57801 11.7209C3.52847 15.268 7.1745 17.3731 10.7216 16.4226C14.2688 15.4722 16.3738 11.8261 15.4234 8.27898C14.4885 4.78982 10.9454 2.69601 7.4538 3.53307L8.193 5.11637C8.3161 5.38006 8.27556 5.69116 8.08898 5.91449C7.9024 6.13783 7.60347 6.23307 7.32209 6.15883L3.54616 5.16265Z" fill="#1E1E1E"/>
</svg>
