<svg width="16" height="12" viewBox="0 0 16 12" fill="none" xmlns="http://www.w3.org/2000/svg">
<path d="M0.878933 9.38401C0.79882 9.54222 0.82763 9.73381 0.950732 9.86146C1.07383 9.98912 1.26425 10.0249 1.42527 9.95055L3.50805 8.98927C5.25855 8.18136 7.16884 7.81176 9.07583 7.89869C9.09847 8.51107 9.13209 9.12315 9.17666 9.73463L9.2337 10.5171C9.2683 10.9918 9.79761 11.2572 10.1987 11.0009C11.9395 9.88854 13.4529 8.45525 14.6582 6.77741L15.0417 6.24356C15.146 6.0983 15.146 5.90265 15.0417 5.75738L14.6582 5.22353C13.4529 3.5457 11.9395 2.1124 10.1987 1.00005C9.79761 0.743773 9.2683 1.00914 9.2337 1.48384L9.17666 2.26631C9.1384 2.79119 9.10822 3.31651 9.08611 3.84209H8.5502C5.56605 3.84209 2.83545 5.52013 1.48737 8.18242L0.878933 9.38401Z" fill="#4E5256"/>
</svg>
