<svg width="25" height="24" viewBox="0 0 25 24" fill="none" xmlns="http://www.w3.org/2000/svg">
<path d="M3.05394 16.0612C2.9578 16.2511 2.99237 16.481 3.1401 16.6341C3.28782 16.7873 3.51632 16.8302 3.70954 16.7411L6.20888 15.5875C8.30948 14.618 10.6018 14.1745 12.8902 14.2788C12.9174 15.0137 12.9577 15.7482 13.0112 16.482L13.0797 17.4209C13.1212 17.9906 13.7564 18.309 14.2376 18.0015C16.3266 16.6666 18.1427 14.9467 19.589 12.9333L20.0492 12.2927C20.1744 12.1184 20.1744 11.8836 20.0492 11.7092L19.589 11.0686C18.1427 9.05523 16.3266 7.33528 14.2376 6.00045C13.7564 5.69292 13.1212 6.01136 13.0797 6.581L13.0112 7.51996C12.9653 8.14982 12.9291 8.78021 12.9025 9.4109H12.2595C8.67848 9.41089 5.40176 11.4245 3.78406 14.6193L3.05394 16.0612Z" fill="#282A2C"/>
</svg>
