<svg width="20" height="20" viewBox="0 0 20 20" fill="none" xmlns="http://www.w3.org/2000/svg">
<path d="M17.5574 4.35817C16.2157 4.22484 14.8741 4.12484 13.5241 4.04984V4.0415L13.3407 2.95817C13.2157 2.1915 13.0324 1.0415 11.0824 1.0415H8.89907C6.95741 1.0415 6.77407 2.1415 6.64074 2.94984L6.46574 4.0165C5.69074 4.0665 4.91574 4.1165 4.14074 4.1915L2.44074 4.35817C2.09074 4.3915 1.84074 4.69984 1.87407 5.0415C1.90741 5.38317 2.20741 5.63317 2.55741 5.59984L4.25741 5.43317C8.62407 4.99984 13.0241 5.1665 17.4407 5.60817C17.4657 5.60817 17.4824 5.60817 17.5074 5.60817C17.8241 5.60817 18.0991 5.3665 18.1324 5.0415C18.1574 4.69984 17.9074 4.3915 17.5574 4.35817Z" fill="#1E1E1E"/>
<path d="M16.0245 6.7835C15.8245 6.57516 15.5495 6.4585 15.2661 6.4585H4.7328C4.44947 6.4585 4.16613 6.57516 3.97447 6.7835C3.7828 6.99183 3.67447 7.27516 3.69113 7.56683L4.2078 16.1168C4.29947 17.3835 4.41613 18.9668 7.32447 18.9668H12.6745C15.5828 18.9668 15.6995 17.3918 15.7911 16.1168L16.3078 7.57516C16.3245 7.27516 16.2161 6.99183 16.0245 6.7835ZM11.3828 14.7918H8.6078C8.26613 14.7918 7.9828 14.5085 7.9828 14.1668C7.9828 13.8252 8.26613 13.5418 8.6078 13.5418H11.3828C11.7245 13.5418 12.0078 13.8252 12.0078 14.1668C12.0078 14.5085 11.7245 14.7918 11.3828 14.7918ZM12.0828 11.4585H7.91613C7.57447 11.4585 7.29113 11.1752 7.29113 10.8335C7.29113 10.4918 7.57447 10.2085 7.91613 10.2085H12.0828C12.4245 10.2085 12.7078 10.4918 12.7078 10.8335C12.7078 11.1752 12.4245 11.4585 12.0828 11.4585Z" fill="#1E1E1E"/>
</svg>
