<svg width="21" height="20" viewBox="0 0 21 20" fill="none" xmlns="http://www.w3.org/2000/svg">
<path d="M18.0574 4.35817C16.7157 4.22484 15.3741 4.12484 14.0241 4.04984V4.0415L13.8407 2.95817C13.7157 2.1915 13.5324 1.0415 11.5824 1.0415H9.39907C7.45741 1.0415 7.27407 2.1415 7.14074 2.94984L6.96574 4.0165C6.19074 4.0665 5.41574 4.1165 4.64074 4.1915L2.94074 4.35817C2.59074 4.3915 2.34074 4.69984 2.37407 5.0415C2.40741 5.38317 2.70741 5.63317 3.05741 5.59984L4.75741 5.43317C9.12407 4.99984 13.5241 5.1665 17.9407 5.60817C17.9657 5.60817 17.9824 5.60817 18.0074 5.60817C18.3241 5.60817 18.5991 5.3665 18.6324 5.0415C18.6574 4.69984 18.4074 4.3915 18.0574 4.35817Z" fill="#AAAFB3"/>
<path d="M16.5245 6.7835C16.3245 6.57516 16.0495 6.4585 15.7661 6.4585H5.2328C4.94947 6.4585 4.66613 6.57516 4.47447 6.7835C4.2828 6.99183 4.17447 7.27516 4.19113 7.56683L4.7078 16.1168C4.79947 17.3835 4.91613 18.9668 7.82447 18.9668H13.1745C16.0828 18.9668 16.1995 17.3918 16.2911 16.1168L16.8078 7.57516C16.8245 7.27516 16.7161 6.99183 16.5245 6.7835ZM11.8828 14.7918H9.1078C8.76613 14.7918 8.4828 14.5085 8.4828 14.1668C8.4828 13.8252 8.76613 13.5418 9.1078 13.5418H11.8828C12.2245 13.5418 12.5078 13.8252 12.5078 14.1668C12.5078 14.5085 12.2245 14.7918 11.8828 14.7918ZM12.5828 11.4585H8.41613C8.07447 11.4585 7.79113 11.1752 7.79113 10.8335C7.79113 10.4918 8.07447 10.2085 8.41613 10.2085H12.5828C12.9245 10.2085 13.2078 10.4918 13.2078 10.8335C13.2078 11.1752 12.9245 11.4585 12.5828 11.4585Z" fill="#AAAFB3"/>
</svg>
