<svg width="60" height="60" viewBox="0 0 60 60" fill="none" xmlns="http://www.w3.org/2000/svg">
<path fill-rule="evenodd" clip-rule="evenodd" d="M19.1655 55H40.832C49.3078 55 55 49.0547 55 40.2082V19.7918C55 10.9453 49.3078 5 40.8345 5H19.1655C10.6922 5 5 10.9453 5 19.7918V40.2082C5 49.0547 10.6922 55 19.1655 55ZM21.2471 27.5C17.8005 27.5 15 24.6957 15 21.25C15 17.8043 17.8005 15 21.2471 15C24.6912 15 27.4943 17.8043 27.4943 21.25C27.4943 24.6957 24.6912 27.5 21.2471 27.5ZM49.552 37.3349C50.3892 39.4814 49.9543 42.0614 49.0593 44.1873C47.9984 46.7157 45.9672 48.63 43.408 49.4659C42.2717 49.8375 41.0801 50 39.891 50H18.8216C16.725 50 14.8697 49.4969 13.3488 48.5604C12.396 47.9721 12.2275 46.6151 12.934 45.7353C14.1155 44.2647 15.282 42.789 16.4585 41.3003C18.7009 38.452 20.2118 37.6264 21.8911 38.3514C22.5724 38.6507 23.2562 39.0996 23.9601 39.5743C25.8355 40.8488 28.4425 42.6006 31.8765 40.6992C34.2265 39.383 35.5895 37.1253 36.7764 35.1593L36.7963 35.1264C36.8801 34.989 36.9631 34.8516 37.046 34.7146L37.0469 34.713C37.4458 34.053 37.8393 33.4018 38.2845 32.8019C38.8426 32.0511 40.9116 29.7033 43.5915 31.3751C45.2984 32.4278 46.7339 33.8519 48.2699 35.3767C48.8557 35.9598 49.273 36.6228 49.552 37.3349Z" fill="white"/>
</svg>
