<svg width="60" height="60" viewBox="0 0 60 60" fill="none" xmlns="http://www.w3.org/2000/svg">
<path d="M43.4757 10.6001L43.3007 20.0751C43.2757 21.3751 44.1007 23.1001 45.1507 23.8751L51.3507 28.5751C55.3257 31.5751 54.6757 35.2501 49.9257 36.7501L41.8507 39.2751C40.5007 39.7001 39.0757 41.1751 38.7257 42.5501L36.8007 49.9001C35.2757 55.7001 31.4757 56.2751 28.3257 51.1751L23.9257 44.0501C23.1257 42.7501 21.2257 41.7751 19.7257 41.8501L11.3757 42.2751C5.40068 42.5751 3.70068 39.1251 7.60068 34.5751L12.5507 28.8251C13.4757 27.7501 13.9007 25.7501 13.4757 24.4001L10.9257 16.3001C9.45068 11.5501 12.1007 8.92511 16.8257 10.4751L24.2007 12.9001C25.4507 13.3001 27.3257 13.0251 28.3757 12.2501L36.0757 6.70011C40.2507 3.72511 43.5757 5.47511 43.4757 10.6001Z" fill="white"/>
<path d="M53.8508 51.4254L46.2758 43.8504C45.5508 43.1254 44.3508 43.1254 43.6258 43.8504C42.9008 44.5754 42.9008 45.7754 43.6258 46.5004L51.2008 54.0754C51.5758 54.4504 52.0508 54.6254 52.5258 54.6254C53.0008 54.6254 53.4758 54.4504 53.8508 54.0754C54.5758 53.3504 54.5758 52.1504 53.8508 51.4254Z" fill="white"/>
</svg>
