<svg width="393" height="324" viewBox="0 0 393 324" fill="none" xmlns="http://www.w3.org/2000/svg">
<g clip-path="url(#clip0_878_7186)">
<ellipse opacity="0.3" cx="197" cy="293.5" rx="93" ry="71.5" fill="url(#paint0_linear_878_7186)"/>
<mask id="mask0_878_7186" style="mask-type:alpha" maskUnits="userSpaceOnUse" x="107" y="42" width="180" height="180">
<circle cx="197" cy="132" r="90" fill="#FFCD32"/>
</mask>
<g mask="url(#mask0_878_7186)">
<circle cx="197" cy="132" r="90" fill="#FFCD32"/>
<path d="M116.878 133.605L107.583 143.113C104.985 145.769 104.076 149.648 105.222 153.182L107.527 160.29C109.518 166.431 116.722 169.101 122.235 165.741L151.85 147.693C155.21 145.646 157.056 141.817 156.565 137.913L153.142 110.652C153.063 110.028 152.926 109.412 152.732 108.814L152.455 107.96C150.752 102.709 145.116 99.8329 139.865 101.536L132.931 103.784C130.026 104.726 127.711 106.945 126.647 109.807L119.099 130.102C118.611 131.412 117.855 132.606 116.878 133.605Z" fill="white"/>
<rect x="137" y="150.006" width="80.7119" height="4.71693" rx="2.35846" transform="rotate(-71.3443 137 150.006)" fill="#0101FF"/>
<path d="M191.695 95.3555C193.474 96.794 192.573 99.6673 190.291 99.8322L157.456 102.206C155.681 102.334 154.335 100.633 154.867 98.9352L162.104 75.8609C162.637 74.1629 164.713 73.5356 166.097 74.6546L191.695 95.3555Z" fill="#0101FF"/>
<path d="M137.395 117.807L138.254 112.127C138.282 111.94 138.358 111.764 138.5 111.637C141.395 109.035 154.995 107.737 155.573 107.55C161.003 106.116 163.357 107.318 164.607 111.17C165.454 113.785 163.856 116.611 162.544 118.204C162.197 118.625 162.193 119.247 162.532 119.675C165.966 124.002 163.234 127.944 160.918 129.801C160.57 130.08 160.413 130.542 160.527 130.973C161.818 135.87 158.94 137.163 157.13 137.625C156.511 137.783 156.234 138.415 156.486 139.003C157.277 140.843 156.942 142.185 155.763 144.495C154.361 147.242 144.711 146.769 141.579 144.182C139.305 142.303 140.172 138.848 141.075 136.93C141.232 136.597 141.218 136.205 141.04 135.882C138.971 132.144 140.305 128.259 141.425 126.461C141.551 126.259 141.61 126.024 141.617 125.785C141.707 122.964 145.575 119.307 144.44 119.675C143.618 119.941 140.332 119.37 138.168 118.924C137.653 118.818 137.316 118.327 137.395 117.807Z" fill="white"/>
<rect x="256.767" y="147.24" width="76.1235" height="4.44878" rx="2.22439" transform="rotate(-120.251 256.767 147.24)" fill="#0101FF"/>
<path d="M244.583 75.4667C246.708 75.0941 248.192 77.5159 246.894 79.24L232.427 98.467C231.418 99.8081 229.375 99.7106 228.498 98.2794L219.265 83.2078C218.388 81.7767 219.229 79.912 220.882 79.6222L244.583 75.4667Z" fill="#0101FF"/>
<path d="M276.365 137.286L284.92 143.457C287.31 145.182 288.547 148.09 288.13 151.009L287.292 156.877C286.568 161.947 281.299 165.011 276.534 163.132L250.938 153.04C248.034 151.895 246.072 149.153 245.926 146.034L244.906 124.26C244.882 123.762 244.906 123.262 244.977 122.768L245.077 122.063C245.696 117.727 249.713 114.715 254.048 115.334L259.773 116.151C262.171 116.494 264.282 117.914 265.502 120.008L274.154 134.849C274.712 135.807 275.466 136.637 276.365 137.286Z" fill="white"/>
<path d="M258.185 127.719L256.743 123.395C256.696 123.252 256.612 123.126 256.485 123.046C253.868 121.404 243.062 122.233 242.585 122.165C238.146 121.781 236.468 123.039 236.014 126.22C235.706 128.379 237.338 130.372 238.58 131.438C238.908 131.721 238.996 132.207 238.788 132.587C236.691 136.435 239.361 139.146 241.423 140.284C241.733 140.455 241.918 140.794 241.888 141.147C241.542 145.15 243.968 145.77 245.445 145.886C245.951 145.925 246.253 146.382 246.135 146.876C245.767 148.421 246.21 149.425 247.445 151.071C248.913 153.028 256.393 151.35 258.49 148.903C260.013 147.126 258.866 144.542 257.901 143.166C257.733 142.927 257.691 142.618 257.786 142.342C258.896 139.139 257.327 136.284 256.208 135.03C256.082 134.889 256.004 134.713 255.966 134.528C255.513 132.334 251.994 130 252.931 130.134C253.609 130.231 256.1 129.339 257.732 128.697C258.12 128.544 258.316 128.114 258.185 127.719Z" fill="white"/>
<rect x="180.437" y="199.546" width="95.951" height="5.60752" rx="2.80376" transform="rotate(-83.3777 180.437 199.546)" fill="#0101FF"/>
<path d="M230.473 122.72C232.898 123.951 232.562 127.515 229.95 128.273L192.361 139.17C190.329 139.759 188.342 138.115 188.541 136.009L191.237 107.387C191.435 105.281 193.693 104.037 195.58 104.995L230.473 122.72Z" fill="#0101FF"/>
<path d="M207.727 204.332L211.685 217.025C212.791 220.572 211.838 224.44 209.211 227.068L203.927 232.351C199.363 236.916 191.732 236.02 188.348 230.522L170.172 200.986C168.11 197.635 168.206 193.386 170.417 190.131L185.858 167.404C186.211 166.884 186.613 166.398 187.058 165.953L187.693 165.318C191.596 161.415 197.924 161.415 201.827 165.318L206.981 170.472C209.141 172.632 210.194 175.66 209.842 178.694L207.341 200.202C207.179 201.591 207.311 202.997 207.727 204.332Z" fill="white"/>
<path d="M196.631 180.934L198.447 175.485C198.507 175.305 198.519 175.114 198.451 174.937C197.054 171.303 185.531 163.965 185.101 163.536C180.916 159.791 178.272 159.791 175.409 162.655C173.465 164.598 173.604 167.842 174.049 169.857C174.167 170.39 173.888 170.946 173.391 171.173C168.366 173.467 169.007 178.219 170.226 180.926C170.409 181.333 170.34 181.816 170.042 182.148C166.666 185.923 168.642 188.383 170.044 189.617C170.524 190.04 170.483 190.728 169.992 191.137C168.451 192.417 168.139 193.764 168.139 196.358C168.139 199.442 176.951 203.407 180.916 202.526C183.796 201.886 184.594 198.414 184.661 196.296C184.673 195.927 184.863 195.584 185.169 195.378C188.71 192.988 189.288 188.922 189.108 186.812C189.087 186.574 189.142 186.338 189.244 186.122C190.446 183.568 188.663 178.552 189.507 179.396C190.117 180.007 193.304 180.991 195.435 181.578C195.941 181.718 196.465 181.433 196.631 180.934Z" fill="white"/>
</g>
<rect x="77" y="245" width="240" height="48" fill="url(#paint1_linear_878_7186)"/>
</g>
<defs>
<linearGradient id="paint0_linear_878_7186" x1="197" y1="175.758" x2="197" y2="283.785" gradientUnits="userSpaceOnUse">
<stop stop-color="#FFCD32"/>
<stop offset="1" stop-color="#FFCD32" stop-opacity="0"/>
</linearGradient>
<linearGradient id="paint1_linear_878_7186" x1="197" y1="245" x2="197" y2="293" gradientUnits="userSpaceOnUse">
<stop stop-color="#1E1E1E" stop-opacity="0"/>
<stop offset="1" stop-color="#1E1E1E"/>
</linearGradient>
<clipPath id="clip0_878_7186">
<rect width="393" height="324" fill="white"/>
</clipPath>
</defs>
</svg>
