<svg width="60" height="60" viewBox="0 0 60 60" fill="none" xmlns="http://www.w3.org/2000/svg">
<path d="M34.077 39.2998C34.077 41.5498 32.252 43.3748 30.002 43.3748C28.402 43.3748 27.027 42.4498 26.377 41.1248L31.827 35.6748C33.152 36.3248 34.077 37.6998 34.077 39.2998Z" fill="white"/>
<path d="M54.4229 5.575C53.6729 4.825 52.4478 4.825 51.6978 5.575L44.6729 12.6C42.7479 7.55 37.8229 5 29.9979 5C15.9229 5 14.2979 13.95 14.2979 20.7V23.825C14.3229 23.825 14.3479 23.825 14.3729 23.825C7.29785 24.675 4.99785 28.2 4.99785 36.975V41.625C4.99785 45.625 5.47285 48.525 6.67285 50.6L5.54785 51.725C4.79785 52.475 4.79785 53.7 5.54785 54.45C5.94785 54.8 6.42285 55 6.92285 55C7.42285 55 7.89785 54.8 8.27285 54.425L54.4229 8.275C55.1978 7.525 55.1978 6.325 54.4229 5.575ZM18.3729 23.6C18.1729 23.6 17.9979 23.6 17.7979 23.6V20.7C17.7979 13.375 19.8729 8.5 29.9979 8.5C38.4979 8.5 41.1729 11.75 41.9229 15.375L33.6979 23.6H18.3729Z" fill="white"/>
<path d="M55.0014 36.9749V41.6249C55.0014 51.8749 51.8763 54.9999 41.6263 54.9999H18.5263C16.3013 54.9999 15.2013 52.2999 16.7763 50.7249L23.8263 43.6749C24.0013 43.9249 24.2014 44.1499 24.4014 44.3749C26.1514 46.2749 28.7513 47.2749 31.6263 46.6749C31.8513 46.6249 32.0763 46.5749 32.3013 46.4749C32.5264 46.4249 32.7263 46.3499 32.9263 46.2499C33.4263 46.0749 33.9013 45.7999 34.3513 45.4749C34.5263 45.3749 34.6763 45.2499 34.8013 45.1249C35.1763 44.8249 35.5264 44.4749 35.8263 44.0999C35.9513 43.9749 36.0763 43.8249 36.1763 43.6499C36.5014 43.1999 36.7763 42.7249 36.9513 42.2249C37.0513 42.0249 37.1263 41.8249 37.1763 41.5999C37.2764 41.3749 37.3263 41.1499 37.3763 40.9249C37.9763 38.0499 36.9763 35.4499 35.0763 33.6999C34.8763 33.4999 34.6264 33.2999 34.3764 33.1249L42.1764 25.3249C42.3014 25.1999 42.4014 25.0999 42.5264 24.9999C43.5264 24.1749 44.8013 23.7749 46.0764 23.8749C46.3013 23.8999 46.5513 23.9249 46.7763 23.9749C47.2013 24.0499 47.6263 24.1499 48.0263 24.2499C48.4263 24.3499 48.8013 24.4749 49.1763 24.5999C49.9013 24.8749 50.5264 25.1999 51.1013 25.5749C51.6763 25.9499 52.1514 26.3999 52.6014 26.9249C52.8264 27.1999 53.0514 27.4999 53.2264 27.8249C53.4014 28.0999 53.5513 28.3999 53.7013 28.7249C53.8513 29.0499 53.9763 29.3999 54.1013 29.7499C54.2513 30.1749 54.3764 30.6499 54.4764 31.1499C54.5764 31.4999 54.6263 31.8749 54.7013 32.2749C54.7513 32.6499 54.8013 33.0499 54.8513 33.4749C54.9514 34.5249 55.0014 35.6999 55.0014 36.9749Z" fill="white"/>
</svg>
