<svg width="35" height="34" viewBox="0 0 35 34" fill="none" xmlns="http://www.w3.org/2000/svg">
<rect width="34" height="34" transform="translate(0.5)" fill="white"/>
<path fill-rule="evenodd" clip-rule="evenodd" d="M31.9772 14.0488C32.6379 12.326 33 10.4553 33 8.5V1L13.5 1C7.14873 1 2 6.14873 2 12.5C2 17.8112 5.60057 22.2815 10.494 23.6031C10.5208 23.774 10.5034 23.9544 10.4344 24.1273C10.2309 24.6369 9.6565 24.8879 9.1513 24.6879C6.70693 23.7204 4.58666 22.076 3.02275 19.9515C2.36204 21.6743 2 23.545 2 25.5003V33.0003H21.5C27.8513 33.0003 33 27.8515 33 21.5003C33 16.189 29.3994 11.7187 24.506 10.3971C24.4792 10.2263 24.4966 10.0459 24.5656 9.87304C24.7691 9.36347 25.3435 9.11249 25.8487 9.31246C28.2931 10.28 30.4133 11.9243 31.9772 14.0488ZM9 17C13.9706 17 18 12.9706 18 8C18 12.9706 22.0294 17 27 17C22.0294 17 18 21.0294 18 26C18 21.0294 13.9706 17 9 17Z" fill="#1E1E1E"/>
</svg>
