<svg width="385" height="267" viewBox="0 0 385 267" fill="none" xmlns="http://www.w3.org/2000/svg">
<g filter="url(#filter0_dd_1940_8025)">
<rect x="12" y="26" width="361" height="227" rx="14" fill="#4E5256"/>
</g>
<rect x="31" y="87" width="327" height="104" rx="14" fill="white"/>
<path d="M18 155V123C18 120.791 19.7909 119 22 119H35.6144C36.8085 119 37.9401 119.533 38.6999 120.454L51.8999 136.454C53.1193 137.932 53.1193 140.068 51.8999 141.546L38.6999 157.546C37.9401 158.467 36.8085 159 35.6144 159H22C19.7909 159 18 157.209 18 155Z" fill="#1E1E1E"/>
<path d="M367 123L367 155C367 157.209 365.209 159 363 159L349.386 159C348.192 159 347.06 158.467 346.3 157.546L333.1 141.546C331.881 140.068 331.881 137.932 333.1 136.454L346.3 120.454C347.06 119.533 348.192 119 349.386 119L363 119C365.209 119 367 120.791 367 123Z" fill="#1E1E1E"/>
<rect x="86" width="213" height="52" rx="14" fill="#12C7E0"/>
<path d="M110.18 17.375V19.0547H112.133V17.375H114.165V23.5078H115.376V17.375H117.426V19.0547H119.379V17.375H121.391V23.918H115.844V25.4609H122.817V27.1797H106.723V25.4609H113.657V23.918H108.09V17.375H110.18ZM108.657 34.5234V28.1953H110.805V29.582H118.637V28.1953H120.825V34.5234H108.657ZM110.18 22.1992H112.133V20.6953H110.18V22.1992ZM110.805 32.8047H118.637V31.2617H110.805V32.8047ZM117.426 22.1992H119.379V20.6953H117.426V22.1992ZM128.514 18.3711C131.171 18.3711 133.085 20.793 133.104 24.6016C133.085 28.4395 131.171 30.8516 128.514 30.8516C125.829 30.8516 123.915 28.4395 123.925 24.6016C123.915 20.793 125.829 18.3711 128.514 18.3711ZM126.014 24.6016C126.005 27.3164 127.03 28.8887 128.514 28.8984C130.009 28.8887 131.005 27.3164 131.014 24.6016C131.005 21.9062 130.009 20.3242 128.514 20.3242C127.03 20.3242 126.005 21.9062 126.014 24.6016ZM135.429 34.7383V17.082H137.596V23.8594H140.311V25.6953H137.596V34.7383H135.429ZM154.642 17.082V23.8594H157.356V25.6758H154.642V34.7578H152.493V17.082H154.642ZM141.517 20.3828V18.625H149.642V25.2852H143.704V28.8008C146.507 28.7812 148.685 28.6641 151.146 28.2344L151.341 29.9922C148.616 30.4805 146.214 30.5977 143.001 30.5977H141.556V23.5469H147.474V20.3828H141.517ZM161.491 18.8594L161.277 28.8398H159.07L158.835 18.8594H161.491ZM158.659 31.6328C158.65 30.8125 159.343 30.1387 160.183 30.1289C160.993 30.1387 161.687 30.8125 161.687 31.6328C161.687 32.4727 160.993 33.1562 160.183 33.1562C159.343 33.1562 158.65 32.4727 158.659 31.6328ZM183.023 17.1016V30.207H180.953V23.9766H179.117V29.7969H177.086V17.4336H179.117V22.1992H180.953V17.1016H183.023ZM168.648 20.2656V18.5469H175.367V23.8984H170.777V25.9883C172.838 25.9785 174.39 25.8711 176.187 25.5195L176.383 27.2578C174.254 27.6387 172.467 27.707 169.879 27.707H168.668V22.2578H173.277V20.2656H168.648ZM171.207 34.3867V28.9766H173.375V32.6289H183.511V34.3867H171.207ZM193.975 18.1367V19.875H188.096V24.8555C191.055 24.8457 192.803 24.748 194.814 24.3477L195.029 26.0859C192.793 26.5449 190.82 26.6426 187.295 26.6523H185.928V18.1367H193.975ZM188.018 34.5039V28.0781H199.756V34.5039H188.018ZM190.186 32.7656H197.627V29.7969H190.186V32.7656ZM193.057 23V21.2422H197.588V17.082H199.756V27.2773H197.588V23H193.057ZM212.831 21.3203C212.811 24.4746 214.393 27.6582 217.127 28.9766L215.799 30.7148C213.885 29.748 212.508 27.8828 211.756 25.6367C210.985 28.0391 209.54 30.0312 207.518 31.0469L206.19 29.3086C209.032 27.9609 210.653 24.582 210.663 21.3203V18.5078H212.831V21.3203ZM218.182 34.7383V17.082H220.35V23.9961H223.065V25.8516H220.35V34.7383H218.182ZM230.266 20.6758C230.266 22.873 231.77 25.0215 234.583 25.8906L233.469 27.5898C231.467 26.9453 230.012 25.6172 229.202 23.9375C228.411 25.7637 226.907 27.2188 224.817 27.9414L223.704 26.2227C226.546 25.2852 228.059 23 228.079 20.6758V20.168H224.27V18.4297H233.977V20.168H230.266V20.6758ZM226.594 34.3867V28.7422H228.782V32.6289H238.762V34.3867H226.594ZM236.087 29.9141V17.1016H238.274V29.9141H236.087ZM254.454 18.7422V30.4414H246.056V18.7422H254.454ZM248.204 28.7031H252.345V20.4414H248.204V28.7031ZM257.618 34.7578V17.082H259.806V34.7578H257.618ZM268.589 20.207C268.58 22.6973 269.976 25.1191 272.691 26.1445L271.48 27.8242C269.595 27.082 268.247 25.6074 267.515 23.7812C266.753 25.7441 265.328 27.2969 263.296 28.0781L262.124 26.3594C264.937 25.3438 266.392 22.8535 266.402 20.207V18.0977H268.589V20.207ZM265.308 34.3867V28.918H267.515V32.6289H277.339V34.3867H265.308ZM271.558 24.7383V23H274.781V21.2617H271.558V19.5039H274.781V17.1016H276.949V30.207H274.781V24.7383H271.558Z" fill="white"/>
<defs>
<filter id="filter0_dd_1940_8025" x="0" y="16" width="385" height="251" filterUnits="userSpaceOnUse" color-interpolation-filters="sRGB">
<feFlood flood-opacity="0" result="BackgroundImageFix"/>
<feColorMatrix in="SourceAlpha" type="matrix" values="0 0 0 0 0 0 0 0 0 0 0 0 0 0 0 0 0 0 127 0" result="hardAlpha"/>
<feMorphology radius="2" operator="dilate" in="SourceAlpha" result="effect1_dropShadow_1940_8025"/>
<feOffset dy="2"/>
<feGaussianBlur stdDeviation="5"/>
<feColorMatrix type="matrix" values="0 0 0 0 0 0 0 0 0 0 0 0 0 0 0 0 0 0 0.15 0"/>
<feBlend mode="normal" in2="BackgroundImageFix" result="effect1_dropShadow_1940_8025"/>
<feColorMatrix in="SourceAlpha" type="matrix" values="0 0 0 0 0 0 0 0 0 0 0 0 0 0 0 0 0 0 127 0" result="hardAlpha"/>
<feOffset dy="1"/>
<feGaussianBlur stdDeviation="1"/>
<feColorMatrix type="matrix" values="0 0 0 0 0 0 0 0 0 0 0 0 0 0 0 0 0 0 0.3 0"/>
<feBlend mode="normal" in2="effect1_dropShadow_1940_8025" result="effect2_dropShadow_1940_8025"/>
<feBlend mode="normal" in="SourceGraphic" in2="effect2_dropShadow_1940_8025" result="shape"/>
</filter>
</defs>
</svg>
