<svg width="24" height="24" viewBox="0 0 24 24" fill="none" xmlns="http://www.w3.org/2000/svg">
<path d="M6.54616 8.16277C6.33094 8.10599 6.15206 7.95655 6.0579 7.75486C5.96374 7.55318 5.96402 7.32009 6.05868 7.11863L7.71944 3.58424C7.8432 3.32086 8.10815 3.15284 8.39916 3.1532C8.69018 3.15356 8.95471 3.32223 9.07782 3.58592L9.81045 5.15516C9.83664 5.14486 9.86368 5.13594 9.89151 5.12848C14.2389 3.96361 18.7074 6.54352 19.8723 10.8909C21.0371 15.2382 18.4572 19.7068 14.1099 20.8716C9.76253 22.0365 5.29399 19.4566 4.12912 15.1092C3.7587 13.7268 3.76704 12.3299 4.09147 11.0312C4.19186 10.6293 4.59901 10.3849 5.00088 10.4853C5.40274 10.5857 5.64714 10.9929 5.54675 11.3947C5.28245 12.4527 5.27517 13.5908 5.57801 14.721C6.52847 18.2682 10.1745 20.3732 13.7216 19.4227C17.2688 18.4723 19.3738 14.8262 18.4234 11.2791C17.4885 7.78995 13.9454 5.69613 10.4538 6.53319L11.193 8.11649C11.3161 8.38018 11.2756 8.69128 11.089 8.91462C10.9024 9.13795 10.6035 9.23319 10.3221 9.15895L6.54616 8.16277Z" fill="#1E1E1E"/>
</svg>
